<?xml version="1.0" encoding="UTF-8"?>
<!DOCTYPE svg PUBLIC "-//W3C//DTD SVG 1.1//EN" "http://www.w3.org/Graphics/SVG/1.1/DTD/svg11.dtd">
<svg xmlns="http://www.w3.org/2000/svg" version="1.1" width="960px" height="960px" style="shape-rendering:geometricPrecision; text-rendering:geometricPrecision; image-rendering:optimizeQuality; fill-rule:evenodd; clip-rule:evenodd" xmlns:xlink="http://www.w3.org/1999/xlink">
<g><path style="opacity:0.993" fill="#010101" d="M 480.5,25.5 C 618.179,26.1092 733.012,77.1092 825,178.5C 917.485,289.416 951.152,416.416 926,559.5C 898.798,684.296 831.965,781.463 725.5,851C 620.783,914.175 508.449,933.175 388.5,908C 264.718,877.739 169.551,808.572 103,700.5C 43.6466,596.365 26.98,485.698 53,368.5C 83.7061,248.525 151.206,155.691 255.5,90C 324.801,48.4266 399.801,26.9266 480.5,25.5 Z"/></g>
<g><path style="opacity:1" fill="#b8b8b8" d="M 464.5,63.5 C 468.646,62.353 472.98,62.1864 477.5,63C 474.832,63.567 472.166,64.067 469.5,64.5C 468.081,63.5489 466.415,63.2155 464.5,63.5 Z"/></g>
<g><path style="opacity:1" fill="#b1b1b1" d="M 509.5,63.5 C 507.585,63.2155 505.919,63.5489 504.5,64.5C 501.834,64.067 499.168,63.567 496.5,63C 501.02,62.1864 505.354,62.353 509.5,63.5 Z"/></g>
<g><path style="opacity:1" fill="#fdfdfd" d="M 464.5,63.5 C 466.415,63.2155 468.081,63.5489 469.5,64.5C 442.761,73.0741 426.261,91.0741 420,118.5C 419.718,128.222 419.552,137.888 419.5,147.5C 385.37,167.134 351.37,186.967 317.5,207C 310.288,211.106 302.954,214.939 295.5,218.5C 249.902,197.92 206.569,201.754 165.5,230C 157.302,237.032 149.635,244.532 142.5,252.5C 186.93,182.764 246.93,130.931 322.5,97C 367.759,77.0185 415.092,65.8519 464.5,63.5 Z"/></g>
<g><path style="opacity:1" fill="#fdfdfd" d="M 504.5,64.5 C 505.919,63.5489 507.585,63.2155 509.5,63.5C 639.525,73.0797 743.358,129.746 821,233.5C 825.439,240.055 829.605,246.721 833.5,253.5C 797.442,211.539 752.442,197.372 698.5,211C 692.043,213.646 685.543,216.146 679,218.5C 637.487,195.659 596.321,172.159 555.5,148C 559.879,119.8 551.545,96.1333 530.5,77C 522.742,70.9546 514.076,66.7879 504.5,64.5 Z"/></g>
<g><path style="opacity:1" fill="#fbfbfb" d="M 484.5,134.5 C 486.199,134.34 487.866,134.506 489.5,135C 503.005,142.92 516.672,150.587 530.5,158C 532.812,159.314 534.812,160.981 536.5,163C 523.196,182.65 504.529,191.65 480.5,190C 463.832,187.422 450.332,179.589 440,166.5C 438.813,164.956 438.48,163.289 439,161.5C 454.478,152.852 469.644,143.852 484.5,134.5 Z"/></g>
<g><path style="opacity:1" fill="#fdfdfd" d="M 425.5,168.5 C 426.496,168.414 427.329,168.748 428,169.5C 445.641,220.092 463.475,270.592 481.5,321C 454.176,322.775 429.009,330.942 406,345.5C 377.799,306.931 349.965,268.098 322.5,229C 356.568,208.303 390.901,188.136 425.5,168.5 Z"/></g>
<g><path style="opacity:1" fill="#fdfdfd" d="M 547.5,168.5 C 582.473,188.655 617.473,208.822 652.5,229C 625.035,268.098 597.201,306.931 569,345.5C 545.989,330.942 520.823,322.775 493.5,321C 511.602,270.193 529.602,219.359 547.5,168.5 Z"/></g>
<g><path style="opacity:1" fill="#fdfdfd" d="M 305.5,237.5 C 329.479,254.38 344.646,277.38 351,306.5C 359.016,356.499 342.516,395.999 301.5,425C 267.285,444.864 231.618,447.864 194.5,434C 193.337,390.238 193.17,346.404 194,302.5C 231.476,281.185 268.642,259.519 305.5,237.5 Z"/></g>
<g><path style="opacity:1" fill="#fefefe" d="M 667.5,237.5 C 705.36,259.017 743.193,280.683 781,302.5C 781.83,346.404 781.663,390.238 780.5,434C 738.469,450.02 699.469,444.687 663.5,418C 629.515,388.387 616.348,351.22 624,306.5C 630.459,278.21 644.959,255.21 667.5,237.5 Z"/></g>
<g><path style="opacity:1" fill="#797979" d="M 142.5,252.5 C 142.539,253.756 142.039,254.756 141,255.5C 140.415,254.002 140.915,253.002 142.5,252.5 Z"/></g>
<g><path style="opacity:1" fill="#989898" d="M 833.5,253.5 C 835.085,254.002 835.585,255.002 835,256.5C 833.961,255.756 833.461,254.756 833.5,253.5 Z"/></g>
<g><path style="opacity:1" fill="#8a8a8a" d="M 852.5,285.5 C 851.833,285.5 851.5,285.833 851.5,286.5C 848.77,281.711 846.604,276.711 845,271.5C 847.767,276.035 850.267,280.701 852.5,285.5 Z"/></g>
<g><path style="opacity:1" fill="#fdfdfd" d="M 852.5,285.5 C 905.101,392.357 911.601,502.024 872,614.5C 865.497,632.003 857.83,649.003 849,665.5C 857.865,628.743 846.032,600.909 813.5,582C 809.979,580.326 806.313,579.16 802.5,578.5C 802.167,529.829 802.5,481.162 803.5,432.5C 843.388,404.718 861.888,366.385 859,317.5C 857.322,306.94 854.822,296.607 851.5,286.5C 851.5,285.833 851.833,285.5 852.5,285.5 Z"/></g>
<g><path style="opacity:1" fill="#fdfdfd" d="M 123.5,654.5 C 123.737,655.791 123.404,656.791 122.5,657.5C 76.8491,565.139 66.3491,468.806 91,368.5C 98.8559,338.93 109.856,310.597 124,283.5C 108.398,328.751 115.064,370.418 144,408.5C 152.131,417.805 161.298,425.805 171.5,432.5C 172.5,481.162 172.833,529.829 172.5,578.5C 146.588,586.584 130.421,603.917 124,630.5C 123.5,638.493 123.334,646.493 123.5,654.5 Z"/></g>
<g><path style="opacity:1" fill="#fdfdfd" d="M 417.5,383.5 C 438.3,410.829 458.633,438.662 478.5,467C 444.159,464.233 409.826,461.066 375.5,457.5C 379.69,427.105 393.69,402.439 417.5,383.5 Z"/></g>
<g><path style="opacity:0.999" fill="#fefefe" d="M 555.5,383.5 C 580.872,401.543 595.538,426.21 599.5,457.5C 565.153,460.88 530.819,464.047 496.5,467C 516.411,439.269 536.078,411.436 555.5,383.5 Z"/></g>
<g><path style="opacity:1" fill="#fdfdfd" d="M 193.5,451.5 C 241.208,455.837 288.874,460.504 336.5,465.5C 335.535,492.345 341.202,517.678 353.5,541.5C 353.167,541.833 352.833,542.167 352.5,542.5C 299.801,552.373 247.135,562.373 194.5,572.5C 193.5,532.172 193.167,491.839 193.5,451.5 Z"/></g>
<g><path style="opacity:1" fill="#fdfdfd" d="M 772.5,451.5 C 775.5,451.5 778.5,451.5 781.5,451.5C 781.5,491.833 781.5,532.167 781.5,572.5C 727.798,563.159 674.465,552.825 621.5,541.5C 633.476,517.628 639.476,492.295 639.5,465.5C 683.965,460.887 728.298,456.221 772.5,451.5 Z"/></g>
<g><path style="opacity:1" fill="#fdfdfd" d="M 486.5,483.5 C 488.335,484.122 489.502,485.456 490,487.5C 503.504,517.351 517.004,547.184 530.5,577C 501.814,588.279 473.147,588.279 444.5,577C 458.641,545.886 472.641,514.72 486.5,483.5 Z"/></g>
<g><path style="opacity:1" fill="#fdfdfd" d="M 359.5,553.5 C 374.553,576.384 394.219,594.218 418.5,607C 398.629,650.575 378.629,694.075 358.5,737.5C 326.833,719.333 295.167,701.167 263.5,683C 260.462,680.821 257.462,678.655 254.5,676.5C 289.271,635.283 324.271,594.283 359.5,553.5 Z"/></g>
<g><path style="opacity:1" fill="#fefefe" d="M 614.5,553.5 C 650.525,593.869 685.858,634.869 720.5,676.5C 685.796,697.033 650.963,717.366 616,737.5C 596.295,693.925 576.462,650.425 556.5,607C 580.795,594.538 600.128,576.705 614.5,553.5 Z"/></g>
<g><path style="opacity:1" fill="#fafafa" d="M 193.5,584.5 C 228.664,587.997 247.664,607.33 250.5,642.5C 250.751,648.984 249.918,655.317 248,661.5C 247.095,664.981 245.429,667.981 243,670.5C 226.768,661.3 210.601,651.967 194.5,642.5C 193.5,623.178 193.167,603.845 193.5,584.5 Z"/></g>
<g><path style="opacity:1" fill="#fafafa" d="M 772.5,584.5 C 775.5,584.5 778.5,584.5 781.5,584.5C 781.833,603.845 781.5,623.178 780.5,642.5C 764.095,651.451 747.928,660.785 732,670.5C 728.124,665.555 725.791,659.889 725,653.5C 721.709,626.923 731.209,606.423 753.5,592C 759.746,588.98 766.079,586.48 772.5,584.5 Z"/></g>
<g><path style="opacity:1" fill="#fdfdfd" d="M 476.5,644.5 C 525.02,642.837 561.854,662.503 587,703.5C 594.63,717.223 599.13,731.89 600.5,747.5C 598.692,747.491 597.025,747.991 595.5,749C 565.5,766.667 535.5,784.333 505.5,802C 499.509,805.579 493.342,808.745 487,811.5C 449.65,790.572 412.483,769.239 375.5,747.5C 379.469,708.413 398.469,678.913 432.5,659C 446.46,651.624 461.127,646.791 476.5,644.5 Z"/></g>
<g><path style="opacity:1" fill="#b2b2b2" d="M 123.5,654.5 C 125.108,657.938 125.942,661.604 126,665.5C 124.546,662.929 123.38,660.262 122.5,657.5C 123.404,656.791 123.737,655.791 123.5,654.5 Z"/></g>
<g><path style="opacity:1" fill="#fdfdfd" d="M 469.5,880.5 C 469.5,880.833 469.5,881.167 469.5,881.5C 327.965,871.601 218.299,807.935 140.5,690.5C 140.667,690.167 140.833,689.833 141,689.5C 162.398,711.14 187.564,716.973 216.5,707C 220.48,705.034 224.48,703.034 228.5,701C 231.732,698.097 235.232,695.597 239,693.5C 280.651,717.493 322.317,741.493 364,765.5C 367.326,808.766 387.16,841.933 423.5,865C 437.812,873.329 453.145,878.495 469.5,880.5 Z"/></g>
<g><path style="opacity:1" fill="#fdfdfd" d="M 504.5,881.5 C 504.5,881.167 504.5,880.833 504.5,880.5C 559.117,871.385 593.617,840.052 608,786.5C 609.543,779.578 610.543,772.578 611,765.5C 652.356,740.988 694.023,716.988 736,693.5C 758.616,712.487 783.783,716.654 811.5,706C 820.462,701.708 828.295,695.874 835,688.5C 780.403,775.692 703.57,834.525 604.5,865C 571.864,874.717 538.53,880.217 504.5,881.5 Z"/></g>
<g><path style="opacity:1" fill="#2e2e2e" d="M 469.5,881.5 C 469.5,881.167 469.5,880.833 469.5,880.5C 481.179,881.812 492.846,881.812 504.5,880.5C 504.5,880.833 504.5,881.167 504.5,881.5C 492.863,882.814 481.197,882.814 469.5,881.5 Z"/></g>
</svg>
