<?xml version="1.0" standalone="no"?>
<!DOCTYPE svg PUBLIC "-//W3C//DTD SVG 20010904//EN"
 "http://www.w3.org/TR/2001/REC-SVG-20010904/DTD/svg10.dtd">
<svg version="1.0" xmlns="http://www.w3.org/2000/svg"
 width="960.000000pt" height="960.000000pt" viewBox="0 0 960.000000 960.000000"
 preserveAspectRatio="xMidYMid meet">

<g transform="translate(0.000000,960.000000) scale(0.100000,-0.100000)"
fill="#000000" stroke="none">
<path d="M4585 9323 c-624 -50 -1138 -188 -1670 -448 -697 -340 -1309 -876
-1742 -1525 -1007 -1509 -1000 -3479 18 -4980 944 -1393 2591 -2135 4263
-1920 1607 206 2981 1277 3576 2785 221 559 321 1125 307 1740 -8 360 -44 634
-127 971 -310 1260 -1167 2331 -2331 2915 -513 256 -1080 413 -1663 459 -117
9 -533 11 -631 3z m125 -373 c-127 -33 -214 -83 -310 -180 -69 -68 -94 -102
-128 -170 -61 -125 -75 -198 -69 -352 l6 -127 -52 -29 c-29 -15 -268 -153
-532 -307 -264 -153 -520 -302 -569 -330 l-90 -52 -60 27 c-332 150 -730 143
-1051 -18 -123 -61 -217 -132 -334 -249 l-113 -115 91 134 c567 831 1411 1418
2399 1667 257 65 597 114 827 119 l60 1 -75 -19z m630 -6 c544 -62 1098 -242
1566 -509 158 -91 398 -254 544 -371 173 -138 486 -451 622 -622 59 -73 146
-193 195 -265 95 -140 122 -185 77 -127 -59 75 -223 229 -294 277 -357 240
-807 279 -1196 103 l-60 -27 -90 52 c-49 28 -305 177 -569 330 -264 154 -503
292 -532 307 l-52 29 6 127 c6 154 -8 227 -69 352 -34 68 -59 102 -128 170
-96 96 -181 146 -310 180 l-75 21 115 -6 c63 -3 176 -13 250 -21z m-208 -830
c131 -75 238 -142 238 -149 0 -40 -137 -163 -235 -210 -91 -44 -151 -57 -255
-57 -104 0 -164 13 -255 57 -102 49 -241 175 -233 212 3 15 465 283 488 283 8
0 121 -61 252 -136z m-838 -246 c9 -24 130 -368 269 -765 l253 -721 -60 -7
c-241 -25 -451 -91 -634 -198 l-60 -35 -411 572 c-225 315 -411 579 -413 585
-3 13 35 36 662 395 190 109 349 202 355 207 16 16 23 10 39 -33z m1303 -21
c59 -35 252 -146 428 -247 498 -286 506 -290 498 -303 -3 -7 -191 -269 -416
-584 l-409 -571 -60 35 c-183 107 -393 173 -634 198 l-60 7 253 721 c274 783
283 807 288 807 2 0 52 -29 112 -63z m-2394 -745 c158 -155 264 -353 313 -582
24 -115 24 -333 0 -450 -96 -452 -450 -798 -906 -884 -180 -34 -437 -14 -601
48 l-64 24 -3 655 -2 655 387 223 c214 123 469 269 567 325 l179 103 26 -20
c14 -11 61 -54 104 -97z m3687 1 c85 -49 329 -189 543 -312 l387 -223 -2 -655
-3 -655 -64 -24 c-164 -62 -421 -82 -601 -48 -394 74 -725 352 -859 720 -88
241 -89 531 -4 769 70 195 169 339 332 487 61 55 65 57 90 44 14 -8 96 -54
181 -103z m1680 -446 c205 -429 328 -857 386 -1342 25 -205 25 -689 1 -885
-64 -509 -205 -985 -411 -1385 -31 -60 -54 -101 -52 -90 23 92 28 132 28 210
1 111 -19 194 -74 305 -33 68 -58 102 -127 171 -83 83 -135 116 -263 168 l-28
11 0 719 0 720 73 55 c400 301 580 816 453 1291 -13 50 -34 114 -45 143 -38
97 -10 53 59 -91z m-7325 79 c-9 -20 -27 -78 -40 -129 -128 -478 51 -992 452
-1293 l73 -55 0 -720 0 -719 -27 -11 c-129 -52 -181 -85 -264 -168 -69 -69
-94 -103 -127 -171 -23 -47 -49 -114 -58 -150 -19 -75 -21 -222 -5 -294 7 -27
10 -51 7 -53 -2 -3 -30 49 -61 114 -507 1054 -545 2252 -109 3328 50 122 165
367 171 362 2 -2 -4 -21 -12 -41z m3247 -1393 c164 -229 296 -418 294 -420 -3
-4 -1019 96 -1023 101 -7 7 29 161 54 230 35 98 94 209 152 286 51 68 202 220
217 220 5 -1 143 -188 306 -417z m1170 340 c136 -132 222 -264 281 -429 25
-69 61 -223 54 -230 -4 -5 -1020 -105 -1023 -101 -6 5 590 836 600 837 4 0 44
-35 88 -77z m-3012 -669 c371 -36 684 -67 696 -69 20 -4 21 -13 27 -142 9
-205 56 -397 138 -566 16 -33 27 -62 25 -65 -4 -3 -1098 -211 -1558 -296 l-38
-7 0 606 c0 569 1 605 18 605 9 0 321 -29 692 -66z m5170 -539 l0 -606 -37 7
c-461 85 -1555 293 -1559 296 -2 3 9 32 25 65 82 168 129 361 138 566 3 75 6
137 7 138 4 3 1349 137 1384 138 l42 1 0 -605z m-2723 -182 l212 -468 -47 -18
c-118 -47 -210 -61 -382 -61 -172 0 -264 14 -382 61 l-47 18 212 468 c116 257
214 467 217 467 3 0 101 -210 217 -467z m-1406 -353 c102 -136 254 -270 418
-368 l78 -47 -294 -650 c-162 -357 -295 -651 -297 -652 -6 -6 -1046 601 -1044
608 2 4 239 283 528 619 514 599 525 611 540 588 8 -12 40 -57 71 -98z m3014
-519 c275 -321 501 -586 503 -590 2 -7 -1038 -614 -1044 -608 -2 1 -135 295
-297 652 l-294 650 78 47 c43 26 104 66 136 89 85 62 261 243 318 327 l50 74
25 -30 c14 -16 250 -291 525 -611z m-4581 295 c168 -63 299 -196 356 -359 28
-79 37 -224 20 -309 -12 -64 -47 -158 -59 -158 -3 0 -114 63 -246 139 l-240
140 -7 278 c-5 153 -6 284 -3 292 8 19 97 8 179 -23z m5691 22 c3 -7 2 -138
-3 -291 l-7 -278 -240 -140 c-132 -76 -243 -139 -246 -139 -10 0 -46 91 -58
148 -55 264 75 533 314 651 104 51 230 77 240 49z m-2718 -612 c367 -78 679
-330 824 -666 42 -97 76 -220 81 -289 3 -51 41 -24 -322 -234 -124 -71 -352
-203 -507 -293 -154 -90 -286 -164 -293 -164 -7 0 -139 74 -293 164 -155 90
-383 222 -507 293 -363 210 -325 183 -322 234 12 176 133 436 281 601 173 192
437 330 703 368 84 12 266 4 355 -14z m3257 -428 c-4 -7 -42 -65 -85 -128
-584 -863 -1484 -1473 -2509 -1699 -207 -46 -559 -93 -670 -90 -27 1 -19 4 31
14 295 59 568 229 745 464 121 161 211 376 234 556 7 50 14 99 16 111 3 16 93
72 361 226 197 113 476 274 621 357 144 83 265 151 268 151 4 0 34 -21 68 -46
119 -91 251 -134 408 -134 175 0 330 59 452 172 64 60 72 66 60 46z m-6756
-141 c228 -122 522 -100 728 57 34 25 64 46 68 46 3 0 124 -68 268 -151 145
-83 424 -244 621 -357 268 -154 358 -210 361 -226 2 -12 9 -61 16 -111 6 -49
27 -137 46 -194 143 -428 486 -732 933 -827 l66 -14 -100 5 c-312 17 -707 95
-1035 207 -590 201 -1105 518 -1549 952 -225 221 -385 412 -537 641 -85 127
-85 126 -17 65 34 -30 93 -72 131 -93z"/>
</g>
</svg>
